<?xml version="1.0" encoding="UTF-8" standalone="no"?>
<!DOCTYPE svg PUBLIC "-//W3C//DTD SVG 1.1//EN" "http://www.w3.org/Graphics/SVG/1.1/DTD/svg11.dtd">
<!-- Created with Vectornator (http://vectornator.io/) -->
<svg height="100%" stroke-miterlimit="10" style="fill-rule:nonzero;clip-rule:evenodd;stroke-linecap:round;stroke-linejoin:round;" version="1.1" viewBox="0 0 2360 1640" width="100%" xml:space="preserve" xmlns="http://www.w3.org/2000/svg" xmlns:vectornator="http://vectornator.io" xmlns:xlink="http://www.w3.org/1999/xlink">
<defs>
<clipPath id="TextBounds">
<rect height="3.69163" width="1839.05" x="305.211" y="1264.01"/>
</clipPath>
<clipPath id="TextBounds_2">
<rect height="694.287" width="2413.78" x="5.69826" y="947.795"/>
</clipPath>
<linearGradient gradientTransform="matrix(3.52585 0 0 3.69163 -1935.98 -1318.09)" gradientUnits="userSpaceOnUse" id="LinearGradient" x1="550.698" x2="1235.29" y1="707.825" y2="707.825">
<stop offset="0.210744" stop-color="#952929"/>
<stop offset="0.568182" stop-color="#254ec9"/>
<stop offset="1" stop-color="#8b4f9d"/>
</linearGradient>
<linearGradient gradientTransform="matrix(3.52585 0 0 3.69163 -1898.03 -1330.19)" gradientUnits="userSpaceOnUse" id="LinearGradient_2" x1="685.953" x2="1094.76" y1="508.651" y2="508.651">
<stop offset="0.210744" stop-color="#952929"/>
<stop offset="0.568182" stop-color="#254ec9"/>
<stop offset="1" stop-color="#8b4f9d"/>
</linearGradient>
<linearGradient gradientTransform="matrix(1 0 0 1 0 0)" gradientUnits="userSpaceOnUse" id="LinearGradient_3" x1="1872.34" x2="1872.34" y1="308.083" y2="308.083">
<stop offset="0.210744" stop-color="#952929"/>
<stop offset="0.568182" stop-color="#254ec9"/>
<stop offset="1" stop-color="#87469b"/>
</linearGradient>
<linearGradient gradientTransform="matrix(1 0 0 1 0 0)" gradientUnits="userSpaceOnUse" id="LinearGradient_4" x1="1710.66" x2="1710.66" y1="266.446" y2="266.446">
<stop offset="0.210744" stop-color="#952929"/>
<stop offset="0.568182" stop-color="#254ec9"/>
<stop offset="1" stop-color="#87469b"/>
</linearGradient>
<clipPath id="TextBounds_3">
<rect height="25.0657" width="1115.64" x="1066.28" y="875.152"/>
</clipPath>
</defs>
<g id="Layer-1" vectornator:layerName="Layer 1">
<g fill="#ff0000" opacity="1" stroke="none"/>
<g fill="url(#LinearGradient)" opacity="1" stroke="none">
<path clip-path="url(#TextBounds_2)" d="M434.812 1256.87C432.551 1272.98 428.523 1288.39 422.729 1303.08C416.934 1317.78 408.95 1330.78 398.774 1342.09C388.599 1353.4 376.021 1362.44 361.041 1369.22C346.06 1376.01 328.395 1379.4 308.044 1379.4C287.693 1379.4 271.017 1376.01 258.015 1369.22C245.013 1362.44 234.979 1353.4 227.913 1342.09C220.847 1330.78 216.537 1317.78 214.982 1303.08C213.427 1288.39 213.781 1272.98 216.042 1256.87L241.904 1071.6L269.886 1071.6L244.872 1249.66C243.459 1260.4 242.823 1271.85 242.964 1284.01C243.105 1296.16 245.367 1307.47 249.748 1317.92C254.129 1328.38 261.124 1337 270.734 1343.79C280.344 1350.57 293.912 1353.96 311.436 1353.96C328.96 1353.96 343.516 1350.57 355.105 1343.79C366.694 1337 376.162 1328.38 383.511 1317.92C390.86 1307.47 396.372 1296.16 400.046 1284.01C403.721 1271.85 406.264 1260.4 407.678 1249.66L432.692 1071.6L460.674 1071.6L434.812 1256.87Z" fill-rule="evenodd"/>
<path clip-path="url(#TextBounds_2)" d="M507.735 1231.01C508.301 1227.33 508.866 1222.88 509.431 1217.65C509.997 1212.43 510.491 1207.13 510.915 1201.76C511.339 1196.38 511.763 1191.37 512.187 1186.7C512.611 1182.04 512.964 1178.44 513.247 1175.89L538.685 1175.89C538.12 1183.24 537.413 1190.31 536.566 1197.09C535.718 1203.87 535.435 1208.26 535.718 1210.23L536.989 1210.23C540.381 1204.86 544.55 1199.78 549.497 1194.97C554.443 1190.17 560.025 1186 566.244 1182.46C572.462 1178.93 579.245 1176.1 586.594 1173.98C593.943 1171.86 601.575 1170.8 609.489 1170.8C624.752 1170.8 636.906 1173.21 645.951 1178.01C654.995 1182.82 661.708 1189.11 666.089 1196.88C670.47 1204.65 672.944 1213.63 673.509 1223.8C674.074 1233.98 673.65 1244.43 672.237 1255.18L656.126 1371.77L630.688 1371.77L646.799 1256.45C647.929 1248.53 648.353 1240.83 648.07 1233.34C647.788 1225.85 646.233 1219.14 643.407 1213.2C640.58 1207.27 636.27 1202.53 630.476 1199C624.681 1195.47 616.696 1193.7 606.521 1193.7C597.194 1193.7 588.149 1195.32 579.387 1198.58C570.625 1201.83 562.711 1206.77 555.644 1213.41C548.578 1220.06 542.572 1228.39 537.625 1238.43C532.679 1248.46 529.217 1260.26 527.238 1273.83L513.671 1371.77L488.233 1371.77L507.735 1231.01Z" fill-rule="evenodd"/>
<path clip-path="url(#TextBounds_2)" d="M891.855 1342.94C880.549 1354.53 868.466 1363.08 855.605 1368.59C842.745 1374.1 829.248 1376.86 815.116 1376.86C800.135 1376.86 786.639 1374.31 774.626 1369.22C762.614 1364.14 752.721 1357 744.948 1347.81C737.175 1338.63 731.593 1327.75 728.201 1315.17C724.81 1302.59 724.244 1288.81 726.505 1273.83C728.484 1258.85 732.936 1245.07 739.861 1232.49C746.786 1219.92 755.406 1209.03 765.723 1199.85C776.04 1190.66 787.911 1183.52 801.337 1178.44C814.763 1173.35 828.966 1170.8 843.946 1170.8C858.361 1170.8 871.292 1173.77 882.74 1179.71C894.187 1185.64 904.009 1193.98 912.206 1204.72L889.735 1219.99C883.234 1211.79 876.027 1205.36 868.112 1200.7C860.198 1196.03 851.154 1193.7 840.978 1193.7C829.107 1193.7 818.084 1195.82 807.908 1200.06C797.733 1204.3 788.759 1210.02 780.986 1217.23C773.213 1224.44 766.854 1232.92 761.907 1242.67C756.961 1252.42 753.64 1262.81 751.944 1273.83C750.248 1284.85 750.531 1295.24 752.792 1304.99C755.053 1314.74 759.01 1323.22 764.663 1330.43C770.316 1337.64 777.665 1343.36 786.71 1347.6C795.754 1351.84 806.212 1353.96 818.084 1353.96C828.824 1353.96 839 1351.49 848.61 1346.54C858.22 1341.6 866.841 1335.02 874.472 1326.83L891.855 1342.94Z" fill-rule="evenodd"/>
<path clip-path="url(#TextBounds_2)" d="M930.437 1273.83C932.415 1258.85 936.867 1245.07 943.792 1232.49C950.717 1219.92 959.337 1209.03 969.654 1199.85C979.971 1190.66 991.842 1183.52 1005.27 1178.44C1018.69 1173.35 1032.9 1170.8 1047.88 1170.8C1062.86 1170.8 1076.28 1173.35 1088.15 1178.44C1100.03 1183.52 1109.92 1190.66 1117.83 1199.85C1125.75 1209.03 1131.33 1219.92 1134.58 1232.49C1137.83 1245.07 1138.47 1258.85 1136.49 1273.83C1134.23 1288.81 1129.7 1302.59 1122.92 1315.17C1116.14 1327.75 1107.52 1338.63 1097.06 1347.81C1086.6 1357 1074.73 1364.14 1061.44 1369.22C1048.16 1374.31 1034.03 1376.86 1019.05 1376.86C1004.07 1376.86 990.57 1374.31 978.557 1369.22C966.545 1364.14 956.652 1357 948.879 1347.81C941.107 1338.63 935.524 1327.75 932.132 1315.17C928.741 1302.59 928.175 1288.81 930.437 1273.83ZM955.875 1273.83C954.179 1284.85 954.462 1295.24 956.723 1304.99C958.984 1314.74 962.941 1323.22 968.594 1330.43C974.247 1337.64 981.596 1343.36 990.641 1347.6C999.685 1351.84 1010.14 1353.96 1022.01 1353.96C1033.89 1353.96 1044.91 1351.84 1055.08 1347.6C1065.26 1343.36 1074.23 1337.64 1082.01 1330.43C1089.78 1323.22 1096.14 1314.74 1101.09 1304.99C1106.03 1295.24 1109.35 1284.85 1111.05 1273.83C1112.74 1262.81 1112.46 1252.42 1110.2 1242.67C1107.94 1232.92 1103.98 1224.44 1098.33 1217.23C1092.68 1210.02 1085.33 1204.3 1076.28 1200.06C1067.24 1195.82 1056.78 1193.7 1044.91 1193.7C1033.04 1193.7 1022.01 1195.82 1011.84 1200.06C1001.66 1204.3 992.69 1210.02 984.917 1217.23C977.144 1224.44 970.785 1232.92 965.838 1242.67C960.892 1252.42 957.571 1262.81 955.875 1273.83Z" fill-rule="evenodd"/>
<path clip-path="url(#TextBounds_2)" d="M1179.31 1175.89L1208.14 1175.89L1250.11 1344.21L1337.03 1175.89L1362.89 1175.89L1258.59 1371.77L1232.31 1371.77L1179.31 1175.89Z" fill-rule="evenodd"/>
<path clip-path="url(#TextBounds_2)" d="M1554.1 1334.88C1541.95 1349.86 1528.17 1360.6 1512.76 1367.1C1497.36 1373.61 1480.89 1376.86 1463.37 1376.86C1448.39 1376.86 1435.18 1374.31 1423.73 1369.22C1412.28 1364.14 1402.81 1357 1395.32 1347.81C1387.83 1338.63 1382.6 1327.75 1379.64 1315.17C1376.67 1302.59 1376.31 1288.67 1378.58 1273.41C1380.55 1258.71 1384.86 1245.14 1391.51 1232.71C1398.15 1220.27 1406.49 1209.46 1416.52 1200.27C1426.56 1191.09 1437.86 1183.88 1450.44 1178.65C1463.02 1173.42 1476.51 1170.8 1490.93 1170.8C1505.91 1170.8 1518.77 1173.42 1529.51 1178.65C1540.25 1183.88 1548.94 1190.8 1555.58 1199.42C1562.23 1208.04 1566.75 1217.87 1569.15 1228.89C1571.55 1239.91 1571.91 1251.08 1570.21 1262.38L1567.67 1280.19L1403.17 1280.19C1402.32 1285.56 1402.39 1292.41 1403.38 1300.75C1404.37 1309.09 1407.12 1317.22 1411.65 1325.13C1416.17 1333.05 1422.74 1339.83 1431.36 1345.48C1439.98 1351.13 1451.78 1353.96 1466.76 1353.96C1479.76 1353.96 1492.84 1350.85 1505.98 1344.63C1519.12 1338.42 1529.65 1329.94 1537.57 1319.2L1554.1 1334.88ZM1545.2 1257.3C1546.33 1248.53 1545.76 1240.34 1543.5 1232.71C1541.24 1225.07 1537.42 1218.36 1532.05 1212.57C1526.68 1206.77 1520.11 1202.18 1512.34 1198.79C1504.57 1195.4 1496.02 1193.7 1486.69 1193.7C1472.84 1193.7 1460.9 1196.53 1450.86 1202.18C1440.83 1207.83 1432.56 1214.33 1426.06 1221.68C1419.56 1229.03 1414.68 1236.17 1411.43 1243.09C1408.18 1250.02 1406.42 1254.75 1406.13 1257.3L1545.2 1257.3Z" fill-rule="evenodd"/>
<path clip-path="url(#TextBounds_2)" d="M1631.26 1231.01C1631.83 1227.33 1632.39 1222.88 1632.96 1217.65C1633.53 1212.43 1634.02 1207.13 1634.44 1201.76C1634.87 1196.38 1635.29 1191.37 1635.72 1186.7C1636.14 1182.04 1636.49 1178.44 1636.78 1175.89L1662.21 1175.89C1661.65 1183.24 1660.94 1190.31 1660.09 1197.09C1659.25 1203.87 1658.96 1208.26 1659.25 1210.23C1667.44 1198.65 1677.12 1189.18 1688.29 1181.83C1699.45 1174.48 1712.38 1170.8 1727.08 1170.8C1731.6 1170.8 1736.41 1171.51 1741.5 1172.92L1735.14 1197.94C1732.03 1196.81 1728.92 1196.24 1725.81 1196.24C1714.79 1196.24 1705.04 1198.01 1696.56 1201.54C1688.08 1205.08 1680.73 1209.95 1674.51 1216.17C1668.29 1222.39 1663.34 1229.67 1659.67 1238C1656 1246.34 1653.45 1255.32 1652.04 1264.93L1637.2 1371.77L1611.76 1371.77L1631.26 1231.01Z" fill-rule="evenodd"/>
<path clip-path="url(#TextBounds_2)" d="M1802.13 1071.6L1888.62 1071.6C1899.07 1071.6 1909.88 1072.8 1921.05 1075.2C1932.21 1077.6 1942.11 1081.77 1950.73 1087.71C1959.35 1093.64 1965.99 1101.77 1970.65 1112.08C1975.32 1122.4 1976.52 1135.33 1974.26 1150.88C1972.28 1164.45 1968.11 1176.18 1961.75 1186.07C1955.39 1195.96 1947.62 1204.09 1938.43 1210.45C1929.25 1216.81 1919 1221.54 1907.69 1224.65C1896.39 1227.76 1884.8 1229.31 1872.93 1229.31L1808.06 1229.31L1788.13 1371.77L1760.15 1371.77L1802.13 1071.6ZM1811.45 1203.87L1875.05 1203.87C1882.96 1203.87 1890.88 1202.96 1898.79 1201.12C1906.71 1199.28 1913.91 1196.31 1920.41 1192.22C1926.91 1188.12 1932.5 1182.68 1937.16 1175.89C1941.82 1169.11 1944.86 1160.77 1946.28 1150.88C1947.69 1141.27 1946.98 1133.07 1944.16 1126.29C1941.33 1119.5 1937.16 1113.92 1931.65 1109.54C1926.14 1105.16 1919.57 1101.98 1911.93 1100C1904.3 1098.02 1896.53 1097.03 1888.62 1097.03L1826.72 1097.03L1811.45 1203.87Z" fill-rule="evenodd"/>
<path clip-path="url(#TextBounds_2)" d="M2257.05 1324.71C2240.09 1344.21 2221.51 1358.2 2201.3 1366.68C2181.09 1375.16 2159.96 1379.4 2137.91 1379.4C2115.02 1379.4 2094.6 1375.51 2076.65 1367.74C2058.7 1359.97 2043.86 1349.09 2032.13 1335.09C2020.4 1321.1 2012.13 1304.43 2007.33 1285.07C2002.52 1265.7 2001.68 1244.58 2004.78 1221.68C2008.18 1198.79 2015.03 1177.73 2025.35 1158.51C2035.66 1139.29 2048.67 1122.68 2064.35 1108.69C2080.04 1094.7 2097.92 1083.75 2117.99 1075.84C2138.05 1067.92 2159.53 1063.96 2182.43 1063.96C2202.78 1063.96 2221.29 1067.57 2237.97 1074.78C2254.65 1081.98 2268.35 1094.07 2279.09 1111.02L2253.66 1130.1C2246.31 1116.25 2235.71 1106.01 2221.86 1099.37C2208.01 1092.72 2193.59 1089.4 2178.61 1089.4C2159.11 1089.4 2141.02 1092.79 2124.34 1099.58C2107.67 1106.36 2092.97 1115.69 2080.25 1127.56C2067.53 1139.43 2057.07 1153.42 2048.88 1169.53C2040.68 1185.64 2035.31 1203.03 2032.77 1221.68C2030.22 1240.34 2030.79 1257.72 2034.46 1273.83C2038.14 1289.94 2044.64 1303.93 2053.97 1315.8C2063.29 1327.68 2075.31 1337 2090 1343.79C2104.7 1350.57 2121.8 1353.96 2141.3 1353.96C2148.94 1353.96 2156.92 1353.04 2165.26 1351.21C2173.6 1349.37 2182.01 1346.54 2190.48 1342.73C2198.96 1338.91 2207.16 1334.11 2215.07 1328.31C2222.99 1322.52 2230.2 1315.52 2236.7 1307.32L2257.05 1324.71Z" fill-rule="evenodd"/>
</g>
<path d="M520.54 879.16C1712.07 383.481 323.724-399.023 1001.94 266.523C1680.15 932.07 2749.34 862.452 1047.15 1085.23" fill="url(#LinearGradient_2)" fill-rule="evenodd" opacity="1" stroke="none"/>
<path d="M1872.34 308.083" fill="url(#LinearGradient_3)" fill-rule="evenodd" opacity="1" stroke="none"/>
<path d="M1710.66 266.446" fill="url(#LinearGradient_4)" fill-rule="evenodd" opacity="1" stroke="none"/>
<g fill="#2e6777" opacity="1" stroke="none">
<path clip-path="url(#TextBounds_3)" d="M1545.83 923.358L1512.69 923.358L1513.79 915.141L1589.11 915.141L1588.01 923.358L1554.87 923.358L1542.41 1012.1L1533.37 1012.1L1545.83 923.358Z" fill-rule="evenodd"/>
<path clip-path="url(#TextBounds_3)" d="M1630.47 1000.19C1626.54 1005.02 1622.09 1008.49 1617.12 1010.59C1612.14 1012.69 1606.82 1013.74 1601.16 1013.74C1596.32 1013.74 1592.05 1012.92 1588.36 1011.28C1584.66 1009.63 1581.6 1007.33 1579.18 1004.36C1576.76 1001.4 1575.07 997.88 1574.11 993.817C1573.15 989.755 1573.04 985.258 1573.77 980.328C1574.41 975.58 1575.8 971.198 1577.95 967.181C1580.09 963.164 1582.79 959.672 1586.03 956.705C1589.27 953.737 1592.92 951.409 1596.98 949.72C1601.05 948.031 1605.41 947.187 1610.06 947.187C1614.9 947.187 1619.06 948.031 1622.52 949.72C1625.99 951.409 1628.8 953.646 1630.95 956.431C1633.09 959.215 1634.55 962.388 1635.33 965.948C1636.11 969.509 1636.22 973.115 1635.67 976.767L1634.85 982.519L1581.71 982.519C1581.44 984.254 1581.46 986.468 1581.78 989.161C1582.1 991.854 1582.99 994.479 1584.45 997.036C1585.91 999.592 1588.04 1001.78 1590.82 1003.61C1593.61 1005.44 1597.42 1006.35 1602.26 1006.35C1606.46 1006.35 1610.68 1005.34 1614.92 1003.34C1619.17 1001.33 1622.57 998.588 1625.13 995.118L1630.47 1000.19ZM1627.59 975.124C1627.96 972.294 1627.77 969.646 1627.04 967.181C1626.31 964.716 1625.08 962.548 1623.35 960.676C1621.61 958.804 1619.49 957.321 1616.98 956.225C1614.47 955.13 1611.71 954.582 1608.69 954.582C1604.22 954.582 1600.36 955.495 1597.12 957.321C1593.88 959.147 1591.21 961.247 1589.11 963.62C1587.01 965.994 1585.43 968.299 1584.38 970.536C1583.33 972.773 1582.76 974.302 1582.67 975.124L1627.59 975.124Z" fill-rule="evenodd"/>
<path clip-path="url(#TextBounds_3)" d="M1670.05 977.863L1651.42 948.83L1661.97 948.83L1676.21 972.796L1696.89 948.83L1707.16 948.83L1680.86 977.863L1703.19 1012.1L1692.5 1012.1L1674.43 983.478L1648.82 1012.1L1638.96 1012.1L1670.05 977.863Z" fill-rule="evenodd"/>
<path clip-path="url(#TextBounds_3)" d="M1753.72 956.225L1735.64 956.225L1729.89 997.446C1729.44 1000.28 1729.87 1002.47 1731.19 1004.02C1732.52 1005.57 1734.55 1006.35 1737.29 1006.35C1738.84 1006.35 1740.46 1006.14 1742.15 1005.73C1743.84 1005.32 1745.46 1004.8 1747.01 1004.16L1746.6 1011.55C1745.05 1012.1 1743.22 1012.6 1741.12 1013.06C1739.02 1013.52 1737.2 1013.74 1735.64 1013.74C1732.72 1013.74 1730.28 1013.31 1728.32 1012.44C1726.35 1011.57 1724.82 1010.41 1723.73 1008.95C1722.63 1007.49 1721.93 1005.78 1721.61 1003.81C1721.29 1001.85 1721.31 999.729 1721.67 997.446L1727.43 956.225L1713.73 956.225L1714.69 948.83L1728.39 948.83L1730.99 930.616L1739.2 930.616L1736.6 948.83L1754.68 948.83L1753.72 956.225Z" fill-rule="evenodd"/>
</g>
</g>
</svg>
